<mxfile host="65bd71144e">
    <diagram id="88Eb3wkWD73W68NpB6OE" name="Page-1">
        <mxGraphModel dx="2212" dy="934" grid="1" gridSize="10" guides="1" tooltips="1" connect="1" arrows="1" fold="1" page="1" pageScale="1" pageWidth="850" pageHeight="1100" math="0" shadow="0">
            <root>
                <mxCell id="0"/>
                <mxCell id="1" parent="0"/>
                <mxCell id="18" style="edgeStyle=none;html=1;entryX=0;entryY=0.5;entryDx=0;entryDy=0;" parent="1" source="2" target="7" edge="1">
                    <mxGeometry relative="1" as="geometry"/>
                </mxCell>
                <mxCell id="2" value="Data Service" style="rounded=0;whiteSpace=wrap;html=1;fillColor=#dae8fc;strokeColor=#6c8ebf;" parent="1" vertex="1">
                    <mxGeometry x="150" y="215" width="120" height="60" as="geometry"/>
                </mxCell>
                <mxCell id="107" style="edgeStyle=none;shape=connector;curved=0;rounded=0;html=1;entryX=1;entryY=0.5;entryDx=0;entryDy=0;strokeColor=default;align=center;verticalAlign=middle;fontFamily=Helvetica;fontSize=11;fontColor=default;labelBackgroundColor=default;endArrow=classic;flowAnimation=0;exitX=0;exitY=0.25;exitDx=0;exitDy=0;" parent="1" source="3" target="56" edge="1">
                    <mxGeometry relative="1" as="geometry"/>
                </mxCell>
                <mxCell id="109" style="edgeStyle=none;shape=connector;curved=0;rounded=0;html=1;entryX=1;entryY=0.5;entryDx=0;entryDy=0;strokeColor=default;align=center;verticalAlign=middle;fontFamily=Helvetica;fontSize=11;fontColor=default;labelBackgroundColor=default;endArrow=classic;flowAnimation=0;exitX=0.011;exitY=0.406;exitDx=0;exitDy=0;exitPerimeter=0;" parent="1" source="3" target="63" edge="1">
                    <mxGeometry relative="1" as="geometry"/>
                </mxCell>
                <mxCell id="111" style="edgeStyle=none;shape=connector;curved=0;rounded=0;html=1;entryX=1;entryY=0.5;entryDx=0;entryDy=0;strokeColor=default;align=center;verticalAlign=middle;fontFamily=Helvetica;fontSize=11;fontColor=default;labelBackgroundColor=default;endArrow=classic;flowAnimation=0;exitX=0.02;exitY=0.791;exitDx=0;exitDy=0;exitPerimeter=0;" parent="1" source="3" target="76" edge="1">
                    <mxGeometry relative="1" as="geometry"/>
                </mxCell>
                <mxCell id="3" value="Message Bus" style="rounded=0;whiteSpace=wrap;html=1;fillColor=#d5e8d4;strokeColor=#82b366;" parent="1" vertex="1">
                    <mxGeometry x="550" y="180" width="120" height="1040" as="geometry"/>
                </mxCell>
                <mxCell id="5" value="QTrader Architecture" style="text;strokeColor=none;fillColor=none;html=1;fontSize=24;fontStyle=1;verticalAlign=middle;align=center;" parent="1" vertex="1">
                    <mxGeometry x="425" y="30" width="100" height="40" as="geometry"/>
                </mxCell>
                <mxCell id="6" value="Publish" style="swimlane;fontStyle=0;childLayout=stackLayout;horizontal=1;startSize=26;fillColor=none;horizontalStack=0;resizeParent=1;resizeParentMax=0;resizeLast=0;collapsible=1;marginBottom=0;html=1;" parent="1" vertex="1">
                    <mxGeometry x="330" y="180" width="105" height="130" as="geometry"/>
                </mxCell>
                <mxCell id="8" value="Quote" style="text;strokeColor=none;fillColor=none;align=left;verticalAlign=top;spacingLeft=4;spacingRight=4;overflow=hidden;rotatable=0;points=[[0,0.5],[1,0.5]];portConstraint=eastwest;whiteSpace=wrap;html=1;" parent="6" vertex="1">
                    <mxGeometry y="26" width="105" height="26" as="geometry"/>
                </mxCell>
                <mxCell id="7" value="Bar" style="text;strokeColor=none;fillColor=none;align=left;verticalAlign=top;spacingLeft=4;spacingRight=4;overflow=hidden;rotatable=0;points=[[0,0.5],[1,0.5]];portConstraint=eastwest;whiteSpace=wrap;html=1;" parent="6" vertex="1">
                    <mxGeometry y="52" width="105" height="26" as="geometry"/>
                </mxCell>
                <mxCell id="11" value="Corp Event" style="text;strokeColor=none;fillColor=none;align=left;verticalAlign=top;spacingLeft=4;spacingRight=4;overflow=hidden;rotatable=0;points=[[0,0.5],[1,0.5]];portConstraint=eastwest;whiteSpace=wrap;html=1;" parent="6" vertex="1">
                    <mxGeometry y="78" width="105" height="26" as="geometry"/>
                </mxCell>
                <mxCell id="12" value="Economic Event" style="text;strokeColor=none;fillColor=none;align=left;verticalAlign=top;spacingLeft=4;spacingRight=4;overflow=hidden;rotatable=0;points=[[0,0.5],[1,0.5]];portConstraint=eastwest;whiteSpace=wrap;html=1;" parent="6" vertex="1">
                    <mxGeometry y="104" width="105" height="26" as="geometry"/>
                </mxCell>
                <mxCell id="28" style="edgeStyle=none;html=1;entryX=0;entryY=0.5;entryDx=0;entryDy=0;" parent="1" source="22" target="2" edge="1">
                    <mxGeometry relative="1" as="geometry"/>
                </mxCell>
                <mxCell id="22" value="Data Sources" style="swimlane;fontStyle=0;childLayout=stackLayout;horizontal=1;startSize=26;fillColor=none;horizontalStack=0;resizeParent=1;resizeParentMax=0;resizeLast=0;collapsible=1;marginBottom=0;html=1;" parent="1" vertex="1">
                    <mxGeometry x="-30" y="180" width="105" height="130" as="geometry"/>
                </mxCell>
                <mxCell id="23" value="Algoseek" style="text;strokeColor=none;fillColor=none;align=left;verticalAlign=top;spacingLeft=4;spacingRight=4;overflow=hidden;rotatable=0;points=[[0,0.5],[1,0.5]];portConstraint=eastwest;whiteSpace=wrap;html=1;" parent="22" vertex="1">
                    <mxGeometry y="26" width="105" height="26" as="geometry"/>
                </mxCell>
                <mxCell id="24" value="CSV" style="text;strokeColor=none;fillColor=none;align=left;verticalAlign=top;spacingLeft=4;spacingRight=4;overflow=hidden;rotatable=0;points=[[0,0.5],[1,0.5]];portConstraint=eastwest;whiteSpace=wrap;html=1;" parent="22" vertex="1">
                    <mxGeometry y="52" width="105" height="26" as="geometry"/>
                </mxCell>
                <mxCell id="25" value="API" style="text;strokeColor=none;fillColor=none;align=left;verticalAlign=top;spacingLeft=4;spacingRight=4;overflow=hidden;rotatable=0;points=[[0,0.5],[1,0.5]];portConstraint=eastwest;whiteSpace=wrap;html=1;" parent="22" vertex="1">
                    <mxGeometry y="78" width="105" height="26" as="geometry"/>
                </mxCell>
                <mxCell id="26" value="ETC" style="text;strokeColor=none;fillColor=none;align=left;verticalAlign=top;spacingLeft=4;spacingRight=4;overflow=hidden;rotatable=0;points=[[0,0.5],[1,0.5]];portConstraint=eastwest;whiteSpace=wrap;html=1;" parent="22" vertex="1">
                    <mxGeometry y="104" width="105" height="26" as="geometry"/>
                </mxCell>
                <mxCell id="74" style="edgeStyle=none;html=1;entryX=0;entryY=0.5;entryDx=0;entryDy=0;" parent="1" source="29" target="72" edge="1">
                    <mxGeometry relative="1" as="geometry"/>
                </mxCell>
                <mxCell id="29" value="Portfolio Manager" style="rounded=0;whiteSpace=wrap;html=1;fillColor=#dae8fc;strokeColor=#6c8ebf;" parent="1" vertex="1">
                    <mxGeometry x="150" y="564" width="120" height="60" as="geometry"/>
                </mxCell>
                <mxCell id="30" value="Risk Policies Library" style="rounded=0;whiteSpace=wrap;html=1;" parent="1" vertex="1">
                    <mxGeometry x="-390" y="430" width="120" height="60" as="geometry"/>
                </mxCell>
                <mxCell id="95" style="edgeStyle=none;shape=connector;curved=0;rounded=0;html=1;entryX=0;entryY=0.5;entryDx=0;entryDy=0;strokeColor=default;align=center;verticalAlign=middle;fontFamily=Helvetica;fontSize=11;fontColor=default;labelBackgroundColor=default;endArrow=classic;flowAnimation=0;" parent="1" source="31" target="91" edge="1">
                    <mxGeometry relative="1" as="geometry"/>
                </mxCell>
                <mxCell id="128" style="edgeStyle=none;shape=connector;curved=0;rounded=0;html=1;entryX=0;entryY=0.25;entryDx=0;entryDy=0;strokeColor=default;align=center;verticalAlign=middle;fontFamily=Helvetica;fontSize=11;fontColor=default;labelBackgroundColor=default;endArrow=classic;flowAnimation=0;exitX=0;exitY=0.5;exitDx=0;exitDy=0;" parent="1" source="31" target="103" edge="1">
                    <mxGeometry relative="1" as="geometry">
                        <Array as="points">
                            <mxPoint x="30" y="770"/>
                            <mxPoint x="30" y="1100"/>
                        </Array>
                    </mxGeometry>
                </mxCell>
                <mxCell id="31" value="Ledger Service" style="rounded=0;whiteSpace=wrap;html=1;fillColor=#dae8fc;strokeColor=#6c8ebf;" parent="1" vertex="1">
                    <mxGeometry x="150" y="738" width="120" height="60" as="geometry"/>
                </mxCell>
                <mxCell id="33" value="Execution Service" style="rounded=0;whiteSpace=wrap;html=1;fillColor=#dae8fc;strokeColor=#6c8ebf;" parent="1" vertex="1">
                    <mxGeometry x="150" y="913" width="120" height="60" as="geometry"/>
                </mxCell>
                <mxCell id="57" style="edgeStyle=none;html=1;entryX=0;entryY=0.5;entryDx=0;entryDy=0;" parent="1" source="34" target="50" edge="1">
                    <mxGeometry relative="1" as="geometry"/>
                </mxCell>
                <mxCell id="34" value="Strategy Service" style="rounded=0;whiteSpace=wrap;html=1;fillColor=#dae8fc;strokeColor=#6c8ebf;" parent="1" vertex="1">
                    <mxGeometry x="150" y="389" width="120" height="60" as="geometry"/>
                </mxCell>
                <mxCell id="41" value="Indicators Library" style="rounded=0;whiteSpace=wrap;html=1;" parent="1" vertex="1">
                    <mxGeometry x="-390" y="340" width="120" height="60" as="geometry"/>
                </mxCell>
                <mxCell id="50" value="Publish" style="swimlane;fontStyle=0;childLayout=stackLayout;horizontal=1;startSize=26;fillColor=none;horizontalStack=0;resizeParent=1;resizeParentMax=0;resizeLast=0;collapsible=1;marginBottom=0;html=1;" parent="1" vertex="1">
                    <mxGeometry x="330" y="423" width="105" height="52" as="geometry"/>
                </mxCell>
                <mxCell id="51" value="Signals" style="text;strokeColor=none;fillColor=none;align=left;verticalAlign=top;spacingLeft=4;spacingRight=4;overflow=hidden;rotatable=0;points=[[0,0.5],[1,0.5]];portConstraint=eastwest;whiteSpace=wrap;html=1;" parent="50" vertex="1">
                    <mxGeometry y="26" width="105" height="26" as="geometry"/>
                </mxCell>
                <mxCell id="100" style="edgeStyle=none;shape=connector;curved=0;rounded=0;html=1;entryX=1;entryY=0.5;entryDx=0;entryDy=0;strokeColor=default;align=center;verticalAlign=middle;fontFamily=Helvetica;fontSize=11;fontColor=default;labelBackgroundColor=default;endArrow=classic;flowAnimation=0;" parent="1" source="55" target="34" edge="1">
                    <mxGeometry relative="1" as="geometry"/>
                </mxCell>
                <mxCell id="55" value="Consume" style="swimlane;fontStyle=0;childLayout=stackLayout;horizontal=1;startSize=26;fillColor=none;horizontalStack=0;resizeParent=1;resizeParentMax=0;resizeLast=0;collapsible=1;marginBottom=0;html=1;" parent="1" vertex="1">
                    <mxGeometry x="330" y="360" width="105" height="52" as="geometry"/>
                </mxCell>
                <mxCell id="56" value="Data Events" style="text;strokeColor=none;fillColor=none;align=left;verticalAlign=top;spacingLeft=4;spacingRight=4;overflow=hidden;rotatable=0;points=[[0,0.5],[1,0.5]];portConstraint=eastwest;whiteSpace=wrap;html=1;" parent="55" vertex="1">
                    <mxGeometry y="26" width="105" height="26" as="geometry"/>
                </mxCell>
                <mxCell id="71" style="edgeStyle=none;html=1;entryX=1;entryY=0.5;entryDx=0;entryDy=0;" parent="1" source="62" target="29" edge="1">
                    <mxGeometry relative="1" as="geometry"/>
                </mxCell>
                <mxCell id="62" value="Consume" style="swimlane;fontStyle=0;childLayout=stackLayout;horizontal=1;startSize=26;fillColor=none;horizontalStack=0;resizeParent=1;resizeParentMax=0;resizeLast=0;collapsible=1;marginBottom=0;html=1;" parent="1" vertex="1">
                    <mxGeometry x="330" y="496" width="105" height="130" as="geometry"/>
                </mxCell>
                <mxCell id="63" value="Signal" style="text;strokeColor=none;fillColor=none;align=left;verticalAlign=top;spacingLeft=4;spacingRight=4;overflow=hidden;rotatable=0;points=[[0,0.5],[1,0.5]];portConstraint=eastwest;whiteSpace=wrap;html=1;" parent="62" vertex="1">
                    <mxGeometry y="26" width="105" height="26" as="geometry"/>
                </mxCell>
                <mxCell id="122" value="Snapshots" style="text;strokeColor=none;fillColor=none;align=left;verticalAlign=top;spacingLeft=4;spacingRight=4;overflow=hidden;rotatable=0;points=[[0,0.5],[1,0.5]];portConstraint=eastwest;whiteSpace=wrap;html=1;" parent="62" vertex="1">
                    <mxGeometry y="52" width="105" height="26" as="geometry"/>
                </mxCell>
                <mxCell id="125" value="Fills" style="text;strokeColor=none;fillColor=none;align=left;verticalAlign=top;spacingLeft=4;spacingRight=4;overflow=hidden;rotatable=0;points=[[0,0.5],[1,0.5]];portConstraint=eastwest;whiteSpace=wrap;html=1;" parent="62" vertex="1">
                    <mxGeometry y="78" width="105" height="26" as="geometry"/>
                </mxCell>
                <mxCell id="127" value="Data events" style="text;strokeColor=none;fillColor=none;align=left;verticalAlign=top;spacingLeft=4;spacingRight=4;overflow=hidden;rotatable=0;points=[[0,0.5],[1,0.5]];portConstraint=eastwest;whiteSpace=wrap;html=1;" parent="62" vertex="1">
                    <mxGeometry y="104" width="105" height="26" as="geometry"/>
                </mxCell>
                <mxCell id="72" value="Publish" style="swimlane;fontStyle=0;childLayout=stackLayout;horizontal=1;startSize=26;fillColor=none;horizontalStack=0;resizeParent=1;resizeParentMax=0;resizeLast=0;collapsible=1;marginBottom=0;html=1;" parent="1" vertex="1">
                    <mxGeometry x="330" y="630" width="105" height="78" as="geometry"/>
                </mxCell>
                <mxCell id="73" value="&lt;span style=&quot;color: rgb(0, 0, 0);&quot;&gt;Portfolio events&lt;/span&gt;" style="text;strokeColor=none;fillColor=none;align=left;verticalAlign=top;spacingLeft=4;spacingRight=4;overflow=hidden;rotatable=0;points=[[0,0.5],[1,0.5]];portConstraint=eastwest;whiteSpace=wrap;html=1;" parent="72" vertex="1">
                    <mxGeometry y="26" width="105" height="26" as="geometry"/>
                </mxCell>
                <mxCell id="97" value="&lt;span style=&quot;color: rgb(0, 0, 0);&quot;&gt;Order Intent&lt;/span&gt;" style="text;strokeColor=none;fillColor=none;align=left;verticalAlign=top;spacingLeft=4;spacingRight=4;overflow=hidden;rotatable=0;points=[[0,0.5],[1,0.5]];portConstraint=eastwest;whiteSpace=wrap;html=1;" parent="72" vertex="1">
                    <mxGeometry y="52" width="105" height="26" as="geometry"/>
                </mxCell>
                <mxCell id="117" style="edgeStyle=none;shape=connector;curved=0;rounded=0;html=1;entryX=1;entryY=0.5;entryDx=0;entryDy=0;strokeColor=default;align=center;verticalAlign=middle;fontFamily=Helvetica;fontSize=11;fontColor=default;labelBackgroundColor=default;endArrow=classic;flowAnimation=0;" parent="1" source="76" target="33" edge="1">
                    <mxGeometry relative="1" as="geometry"/>
                </mxCell>
                <mxCell id="76" value="Consume" style="swimlane;fontStyle=0;childLayout=stackLayout;horizontal=1;startSize=26;fillColor=none;horizontalStack=0;resizeParent=1;resizeParentMax=0;resizeLast=0;collapsible=1;marginBottom=0;html=1;" parent="1" vertex="1">
                    <mxGeometry x="330" y="983" width="105" height="52" as="geometry"/>
                </mxCell>
                <mxCell id="77" value="Order Intent" style="text;strokeColor=none;fillColor=none;align=left;verticalAlign=top;spacingLeft=4;spacingRight=4;overflow=hidden;rotatable=0;points=[[0,0.5],[1,0.5]];portConstraint=eastwest;whiteSpace=wrap;html=1;" parent="76" vertex="1">
                    <mxGeometry y="26" width="105" height="26" as="geometry"/>
                </mxCell>
                <mxCell id="81" value="Publish" style="swimlane;fontStyle=0;childLayout=stackLayout;horizontal=1;startSize=26;fillColor=none;horizontalStack=0;resizeParent=1;resizeParentMax=0;resizeLast=0;collapsible=1;marginBottom=0;html=1;" parent="1" vertex="1">
                    <mxGeometry x="330" y="1043" width="105" height="52" as="geometry"/>
                </mxCell>
                <mxCell id="82" value="Fill" style="text;strokeColor=none;fillColor=none;align=left;verticalAlign=top;spacingLeft=4;spacingRight=4;overflow=hidden;rotatable=0;points=[[0,0.5],[1,0.5]];portConstraint=eastwest;whiteSpace=wrap;html=1;" parent="81" vertex="1">
                    <mxGeometry y="26" width="105" height="26" as="geometry"/>
                </mxCell>
                <mxCell id="126" style="edgeStyle=none;shape=connector;curved=0;rounded=0;html=1;entryX=1;entryY=0.75;entryDx=0;entryDy=0;strokeColor=default;align=center;verticalAlign=middle;fontFamily=Helvetica;fontSize=11;fontColor=default;labelBackgroundColor=default;endArrow=classic;flowAnimation=0;" parent="1" source="88" target="31" edge="1">
                    <mxGeometry relative="1" as="geometry"/>
                </mxCell>
                <mxCell id="88" value="Consume" style="swimlane;fontStyle=0;childLayout=stackLayout;horizontal=1;startSize=26;fillColor=none;horizontalStack=0;resizeParent=1;resizeParentMax=0;resizeLast=0;collapsible=1;marginBottom=0;html=1;" parent="1" vertex="1">
                    <mxGeometry x="330" y="717" width="105" height="78" as="geometry"/>
                </mxCell>
                <mxCell id="89" value="Fills" style="text;strokeColor=none;fillColor=none;align=left;verticalAlign=top;spacingLeft=4;spacingRight=4;overflow=hidden;rotatable=0;points=[[0,0.5],[1,0.5]];portConstraint=eastwest;whiteSpace=wrap;html=1;" parent="88" vertex="1">
                    <mxGeometry y="26" width="105" height="26" as="geometry"/>
                </mxCell>
                <mxCell id="98" value="Portfolio Events" style="text;strokeColor=none;fillColor=none;align=left;verticalAlign=top;spacingLeft=4;spacingRight=4;overflow=hidden;rotatable=0;points=[[0,0.5],[1,0.5]];portConstraint=eastwest;whiteSpace=wrap;html=1;" parent="88" vertex="1">
                    <mxGeometry y="52" width="105" height="26" as="geometry"/>
                </mxCell>
                <mxCell id="91" value="Publish" style="swimlane;fontStyle=0;childLayout=stackLayout;horizontal=1;startSize=26;fillColor=none;horizontalStack=0;resizeParent=1;resizeParentMax=0;resizeLast=0;collapsible=1;marginBottom=0;html=1;" parent="1" vertex="1">
                    <mxGeometry x="330" y="801" width="105" height="52" as="geometry"/>
                </mxCell>
                <mxCell id="92" value="SnapShot" style="text;strokeColor=none;fillColor=none;align=left;verticalAlign=top;spacingLeft=4;spacingRight=4;overflow=hidden;rotatable=0;points=[[0,0.5],[1,0.5]];portConstraint=eastwest;whiteSpace=wrap;html=1;" parent="91" vertex="1">
                    <mxGeometry y="26" width="105" height="26" as="geometry"/>
                </mxCell>
                <mxCell id="135" style="edgeStyle=none;shape=connector;curved=0;rounded=0;html=1;entryX=0.5;entryY=0;entryDx=0;entryDy=0;strokeColor=default;align=center;verticalAlign=middle;fontFamily=Helvetica;fontSize=11;fontColor=default;labelBackgroundColor=default;endArrow=classic;flowAnimation=0;" parent="1" source="103" target="131" edge="1">
                    <mxGeometry relative="1" as="geometry"/>
                </mxCell>
                <mxCell id="138" style="edgeStyle=none;shape=connector;curved=0;rounded=0;html=1;entryX=0.5;entryY=0;entryDx=0;entryDy=0;strokeColor=default;align=center;verticalAlign=middle;fontFamily=Helvetica;fontSize=11;fontColor=default;labelBackgroundColor=default;endArrow=classic;flowAnimation=0;" parent="1" source="103" target="136" edge="1">
                    <mxGeometry relative="1" as="geometry"/>
                </mxCell>
                <mxCell id="103" value="Reporting Service" style="rounded=0;whiteSpace=wrap;html=1;fillColor=#dae8fc;strokeColor=#6c8ebf;" parent="1" vertex="1">
                    <mxGeometry x="150" y="1087" width="120" height="60" as="geometry"/>
                </mxCell>
                <mxCell id="104" value="Metrics Library" style="rounded=0;whiteSpace=wrap;html=1;" parent="1" vertex="1">
                    <mxGeometry x="-390" y="520" width="120" height="60" as="geometry"/>
                </mxCell>
                <mxCell id="105" style="edgeStyle=none;shape=connector;curved=0;rounded=0;html=1;entryX=0.011;entryY=0.07;entryDx=0;entryDy=0;entryPerimeter=0;strokeColor=default;align=center;verticalAlign=middle;fontFamily=Helvetica;fontSize=11;fontColor=default;labelBackgroundColor=default;endArrow=classic;flowAnimation=0;" parent="1" edge="1">
                    <mxGeometry relative="1" as="geometry">
                        <mxPoint x="435" y="244.94266082217746" as="sourcePoint"/>
                        <mxPoint x="551.3200000000002" y="244.94266082217746" as="targetPoint"/>
                    </mxGeometry>
                </mxCell>
                <mxCell id="106" style="edgeStyle=none;shape=connector;curved=0;rounded=0;html=1;entryX=-0.013;entryY=0.32;entryDx=0;entryDy=0;entryPerimeter=0;strokeColor=default;align=center;verticalAlign=middle;fontFamily=Helvetica;fontSize=11;fontColor=default;labelBackgroundColor=default;endArrow=classic;flowAnimation=0;" parent="1" source="51" target="3" edge="1">
                    <mxGeometry relative="1" as="geometry"/>
                </mxCell>
                <mxCell id="108" style="edgeStyle=none;shape=connector;curved=0;rounded=0;html=1;entryX=0.011;entryY=0.474;entryDx=0;entryDy=0;entryPerimeter=0;strokeColor=default;align=center;verticalAlign=middle;fontFamily=Helvetica;fontSize=11;fontColor=default;labelBackgroundColor=default;endArrow=classic;flowAnimation=0;" parent="1" source="73" target="3" edge="1">
                    <mxGeometry relative="1" as="geometry"/>
                </mxCell>
                <mxCell id="112" style="edgeStyle=none;shape=connector;curved=0;rounded=0;html=1;entryX=0.035;entryY=0.679;entryDx=0;entryDy=0;entryPerimeter=0;strokeColor=default;align=center;verticalAlign=middle;fontFamily=Helvetica;fontSize=11;fontColor=default;labelBackgroundColor=default;endArrow=classic;flowAnimation=0;" parent="1" source="91" target="3" edge="1">
                    <mxGeometry relative="1" as="geometry"/>
                </mxCell>
                <mxCell id="113" style="edgeStyle=none;shape=connector;curved=0;rounded=0;html=1;entryX=0.011;entryY=0.851;entryDx=0;entryDy=0;entryPerimeter=0;strokeColor=default;align=center;verticalAlign=middle;fontFamily=Helvetica;fontSize=11;fontColor=default;labelBackgroundColor=default;endArrow=classic;flowAnimation=0;" parent="1" source="81" target="3" edge="1">
                    <mxGeometry relative="1" as="geometry"/>
                </mxCell>
                <mxCell id="114" style="edgeStyle=none;shape=connector;curved=0;rounded=0;html=1;entryX=0.986;entryY=0.172;entryDx=0;entryDy=0;entryPerimeter=0;strokeColor=default;align=center;verticalAlign=middle;fontFamily=Helvetica;fontSize=11;fontColor=default;labelBackgroundColor=default;endArrow=classic;flowAnimation=0;exitX=0.02;exitY=0.576;exitDx=0;exitDy=0;exitPerimeter=0;" parent="1" source="3" target="88" edge="1">
                    <mxGeometry relative="1" as="geometry"/>
                </mxCell>
                <mxCell id="116" style="edgeStyle=none;shape=connector;curved=0;rounded=0;html=1;entryX=0.007;entryY=-0.071;entryDx=0;entryDy=0;entryPerimeter=0;strokeColor=default;align=center;verticalAlign=middle;fontFamily=Helvetica;fontSize=11;fontColor=default;labelBackgroundColor=default;endArrow=classic;flowAnimation=0;" parent="1" source="33" target="82" edge="1">
                    <mxGeometry relative="1" as="geometry"/>
                </mxCell>
                <mxCell id="131" value="Reports" style="swimlane;fontStyle=0;childLayout=stackLayout;horizontal=1;startSize=30;horizontalStack=0;resizeParent=1;resizeParentMax=0;resizeLast=0;collapsible=1;marginBottom=0;whiteSpace=wrap;html=1;fontFamily=Helvetica;fontSize=11;fontColor=default;labelBackgroundColor=default;" parent="1" vertex="1">
                    <mxGeometry x="140" y="1220" width="140" height="90" as="geometry"/>
                </mxCell>
                <mxCell id="132" value="Console" style="text;strokeColor=none;fillColor=none;align=left;verticalAlign=middle;spacingLeft=4;spacingRight=4;overflow=hidden;points=[[0,0.5],[1,0.5]];portConstraint=eastwest;rotatable=0;whiteSpace=wrap;html=1;fontFamily=Helvetica;fontSize=11;fontColor=default;labelBackgroundColor=default;" parent="131" vertex="1">
                    <mxGeometry y="30" width="140" height="30" as="geometry"/>
                </mxCell>
                <mxCell id="133" value="Save JSON" style="text;strokeColor=none;fillColor=none;align=left;verticalAlign=middle;spacingLeft=4;spacingRight=4;overflow=hidden;points=[[0,0.5],[1,0.5]];portConstraint=eastwest;rotatable=0;whiteSpace=wrap;html=1;fontFamily=Helvetica;fontSize=11;fontColor=default;labelBackgroundColor=default;" parent="131" vertex="1">
                    <mxGeometry y="60" width="140" height="30" as="geometry"/>
                </mxCell>
                <mxCell id="136" value="Publish" style="swimlane;fontStyle=0;childLayout=stackLayout;horizontal=1;startSize=26;fillColor=none;horizontalStack=0;resizeParent=1;resizeParentMax=0;resizeLast=0;collapsible=1;marginBottom=0;html=1;" parent="1" vertex="1">
                    <mxGeometry x="330" y="1160" width="105" height="52" as="geometry"/>
                </mxCell>
                <mxCell id="137" value="Json" style="text;strokeColor=none;fillColor=none;align=left;verticalAlign=top;spacingLeft=4;spacingRight=4;overflow=hidden;rotatable=0;points=[[0,0.5],[1,0.5]];portConstraint=eastwest;whiteSpace=wrap;html=1;" parent="136" vertex="1">
                    <mxGeometry y="26" width="105" height="26" as="geometry"/>
                </mxCell>
                <mxCell id="139" style="edgeStyle=none;shape=connector;curved=0;rounded=0;html=1;entryX=0.002;entryY=0.966;entryDx=0;entryDy=0;entryPerimeter=0;strokeColor=default;align=center;verticalAlign=middle;fontFamily=Helvetica;fontSize=11;fontColor=default;labelBackgroundColor=default;endArrow=classic;flowAnimation=0;" parent="1" source="136" target="3" edge="1">
                    <mxGeometry relative="1" as="geometry"/>
                </mxCell>
                <mxCell id="155" style="edgeStyle=none;shape=connector;curved=0;rounded=0;html=1;entryX=0;entryY=0.5;entryDx=0;entryDy=0;strokeColor=default;align=center;verticalAlign=middle;fontFamily=Helvetica;fontSize=11;fontColor=default;labelBackgroundColor=default;endArrow=classic;flowAnimation=0;" parent="1" source="141" target="34" edge="1">
                    <mxGeometry relative="1" as="geometry"/>
                </mxCell>
                <mxCell id="141" value="Backtest Run Config YAML" style="swimlane;fontStyle=0;childLayout=stackLayout;horizontal=1;startSize=30;horizontalStack=0;resizeParent=1;resizeParentMax=0;resizeLast=0;collapsible=1;marginBottom=0;whiteSpace=wrap;html=1;fontFamily=Helvetica;fontSize=11;fontColor=default;labelBackgroundColor=default;" parent="1" vertex="1">
                    <mxGeometry x="-100" y="449" width="140" height="120" as="geometry"/>
                </mxCell>
                <mxCell id="142" value="Init portfolio settings" style="text;strokeColor=none;fillColor=none;align=left;verticalAlign=middle;spacingLeft=4;spacingRight=4;overflow=hidden;points=[[0,0.5],[1,0.5]];portConstraint=eastwest;rotatable=0;whiteSpace=wrap;html=1;fontFamily=Helvetica;fontSize=11;fontColor=default;labelBackgroundColor=default;" parent="141" vertex="1">
                    <mxGeometry y="30" width="140" height="30" as="geometry"/>
                </mxCell>
                <mxCell id="143" value="Risk Policy definition" style="text;strokeColor=none;fillColor=none;align=left;verticalAlign=middle;spacingLeft=4;spacingRight=4;overflow=hidden;points=[[0,0.5],[1,0.5]];portConstraint=eastwest;rotatable=0;whiteSpace=wrap;html=1;fontFamily=Helvetica;fontSize=11;fontColor=default;labelBackgroundColor=default;" parent="141" vertex="1">
                    <mxGeometry y="60" width="140" height="30" as="geometry"/>
                </mxCell>
                <mxCell id="144" value="Strategy&amp;nbsp;" style="text;strokeColor=none;fillColor=none;align=left;verticalAlign=middle;spacingLeft=4;spacingRight=4;overflow=hidden;points=[[0,0.5],[1,0.5]];portConstraint=eastwest;rotatable=0;whiteSpace=wrap;html=1;fontFamily=Helvetica;fontSize=11;fontColor=default;labelBackgroundColor=default;" parent="141" vertex="1">
                    <mxGeometry y="90" width="140" height="30" as="geometry"/>
                </mxCell>
                <mxCell id="145" value="Strategies Library" style="rounded=0;whiteSpace=wrap;html=1;fontFamily=Helvetica;fontSize=11;fontColor=default;labelBackgroundColor=default;" parent="1" vertex="1">
                    <mxGeometry x="-390" y="250" width="120" height="60" as="geometry"/>
                </mxCell>
                <mxCell id="150" value="System Config YAML" style="swimlane;fontStyle=0;childLayout=stackLayout;horizontal=1;startSize=30;horizontalStack=0;resizeParent=1;resizeParentMax=0;resizeLast=0;collapsible=1;marginBottom=0;whiteSpace=wrap;html=1;fontFamily=Helvetica;fontSize=11;fontColor=default;labelBackgroundColor=default;" parent="1" vertex="1">
                    <mxGeometry x="-470" y="798" width="140" height="150" as="geometry"/>
                </mxCell>
                <mxCell id="151" value="Logging" style="text;strokeColor=none;fillColor=none;align=left;verticalAlign=middle;spacingLeft=4;spacingRight=4;overflow=hidden;points=[[0,0.5],[1,0.5]];portConstraint=eastwest;rotatable=0;whiteSpace=wrap;html=1;fontFamily=Helvetica;fontSize=11;fontColor=default;labelBackgroundColor=default;" parent="150" vertex="1">
                    <mxGeometry y="30" width="140" height="30" as="geometry"/>
                </mxCell>
                <mxCell id="152" value="Execution" style="text;strokeColor=none;fillColor=none;align=left;verticalAlign=middle;spacingLeft=4;spacingRight=4;overflow=hidden;points=[[0,0.5],[1,0.5]];portConstraint=eastwest;rotatable=0;whiteSpace=wrap;html=1;fontFamily=Helvetica;fontSize=11;fontColor=default;labelBackgroundColor=default;" parent="150" vertex="1">
                    <mxGeometry y="60" width="140" height="30" as="geometry"/>
                </mxCell>
                <mxCell id="153" value="Ledger" style="text;strokeColor=none;fillColor=none;align=left;verticalAlign=middle;spacingLeft=4;spacingRight=4;overflow=hidden;points=[[0,0.5],[1,0.5]];portConstraint=eastwest;rotatable=0;whiteSpace=wrap;html=1;fontFamily=Helvetica;fontSize=11;fontColor=default;labelBackgroundColor=default;" parent="150" vertex="1">
                    <mxGeometry y="90" width="140" height="30" as="geometry"/>
                </mxCell>
                <mxCell id="154" value="Other services configs" style="text;strokeColor=none;fillColor=none;align=left;verticalAlign=middle;spacingLeft=4;spacingRight=4;overflow=hidden;points=[[0,0.5],[1,0.5]];portConstraint=eastwest;rotatable=0;whiteSpace=wrap;html=1;fontFamily=Helvetica;fontSize=11;fontColor=default;labelBackgroundColor=default;" parent="150" vertex="1">
                    <mxGeometry y="120" width="140" height="30" as="geometry"/>
                </mxCell>
                <mxCell id="156" style="edgeStyle=none;shape=connector;curved=0;rounded=0;html=1;entryX=0;entryY=0.5;entryDx=0;entryDy=0;strokeColor=default;align=center;verticalAlign=middle;fontFamily=Helvetica;fontSize=11;fontColor=default;labelBackgroundColor=default;endArrow=classic;flowAnimation=0;exitX=1.01;exitY=1.039;exitDx=0;exitDy=0;exitPerimeter=0;" parent="1" source="143" target="29" edge="1">
                    <mxGeometry relative="1" as="geometry"/>
                </mxCell>
                <mxCell id="158" style="edgeStyle=none;shape=connector;curved=0;rounded=0;html=1;strokeColor=default;align=center;verticalAlign=middle;fontFamily=Helvetica;fontSize=11;fontColor=default;labelBackgroundColor=default;endArrow=classic;flowAnimation=0;" parent="1" source="157" target="34" edge="1">
                    <mxGeometry relative="1" as="geometry"/>
                </mxCell>
                <mxCell id="159" style="edgeStyle=none;shape=connector;curved=0;rounded=0;html=1;entryX=0;entryY=0.5;entryDx=0;entryDy=0;strokeColor=default;align=center;verticalAlign=middle;fontFamily=Helvetica;fontSize=11;fontColor=default;labelBackgroundColor=default;endArrow=classic;flowAnimation=0;" parent="1" source="157" target="29" edge="1">
                    <mxGeometry relative="1" as="geometry">
                        <Array as="points">
                            <mxPoint x="-120" y="670"/>
                        </Array>
                    </mxGeometry>
                </mxCell>
                <mxCell id="160" style="edgeStyle=none;shape=connector;curved=0;rounded=0;html=1;entryX=0;entryY=0.5;entryDx=0;entryDy=0;strokeColor=default;align=center;verticalAlign=middle;fontFamily=Helvetica;fontSize=11;fontColor=default;labelBackgroundColor=default;endArrow=classic;flowAnimation=0;" parent="1" source="157" target="103" edge="1">
                    <mxGeometry relative="1" as="geometry">
                        <Array as="points">
                            <mxPoint x="-90" y="1117"/>
                        </Array>
                    </mxGeometry>
                </mxCell>
                <mxCell id="157" value="Libraries" style="swimlane;whiteSpace=wrap;html=1;fontFamily=Helvetica;fontSize=11;fontColor=default;labelBackgroundColor=default;" parent="1" vertex="1">
                    <mxGeometry x="-425" y="198" width="200" height="405" as="geometry"/>
                </mxCell>
            </root>
        </mxGraphModel>
    </diagram>
</mxfile>
